G04 #@! TF.FileFunction,Soldermask,Top*
%FSLAX46Y46*%
G04 Gerber Fmt 4.6, Leading zero omitted, Abs format (unit mm)*
G04 Created by KiCad (PCBNEW 4.0.6-e0-6349~53~ubuntu14.04.1) date Sat Mar 25 21:58:17 2017*
%MOMM*%
%LPD*%
G01*
G04 APERTURE LIST*
%ADD10C,0.100000*%
%ADD11R,1.200000X1.200000*%
%ADD12R,1.500000X1.300000*%
%ADD13R,1.300000X1.500000*%
%ADD14R,1.400000X0.300000*%
%ADD15R,1.700000X1.700000*%
%ADD16O,1.700000X1.700000*%
%ADD17R,2.000000X1.600000*%
%ADD18R,1.900000X1.890000*%
%ADD19R,0.400000X1.350000*%
%ADD20R,1.600000X1.400000*%
%ADD21C,1.600000*%
G04 APERTURE END LIST*
D10*
D11*
X172200000Y-106000000D03*
X170000000Y-106000000D03*
X143900000Y-107000000D03*
X146100000Y-107000000D03*
X143900000Y-102875000D03*
X146100000Y-102875000D03*
D12*
X152350000Y-102875000D03*
X149650000Y-102875000D03*
X152350000Y-107000000D03*
X149650000Y-107000000D03*
X164450000Y-106000000D03*
X167150000Y-106000000D03*
X167150000Y-109000000D03*
X164450000Y-109000000D03*
X167125000Y-102875000D03*
X164425000Y-102875000D03*
X157400000Y-106000000D03*
X160100000Y-106000000D03*
D13*
X161000000Y-97350000D03*
X161000000Y-94650000D03*
X157000000Y-97350000D03*
X157000000Y-94650000D03*
D14*
X155915000Y-101870000D03*
X155915000Y-102370000D03*
X155915000Y-102870000D03*
X155915000Y-103370000D03*
X155915000Y-103870000D03*
X160315000Y-103870000D03*
X160315000Y-103370000D03*
X160315000Y-102870000D03*
X160315000Y-102370000D03*
X160315000Y-101870000D03*
D15*
X159750000Y-109000000D03*
D16*
X157210000Y-109000000D03*
D15*
X172325000Y-95125000D03*
D16*
X172325000Y-92585000D03*
D17*
X144000000Y-96000000D03*
X148000000Y-96000000D03*
X169000000Y-95000000D03*
X165000000Y-95000000D03*
D18*
X157025000Y-87925000D03*
X159425000Y-87925000D03*
D19*
X159525000Y-90600000D03*
X158875000Y-90600000D03*
X158225000Y-90600000D03*
X157575000Y-90600000D03*
X156925000Y-90600000D03*
D20*
X161425000Y-90375000D03*
X155025000Y-90375000D03*
D21*
X161525000Y-87925000D03*
X154925000Y-87925000D03*
D13*
X153000000Y-97350000D03*
X153000000Y-94650000D03*
M02*
