G04 #@! TF.FileFunction,Legend,Bot*
%FSLAX46Y46*%
G04 Gerber Fmt 4.6, Leading zero omitted, Abs format (unit mm)*
G04 Created by KiCad (PCBNEW 4.0.6-e0-6349~53~ubuntu14.04.1) date Sat Mar 25 21:58:17 2017*
%MOMM*%
%LPD*%
G01*
G04 APERTURE LIST*
%ADD10C,0.100000*%
%ADD11C,0.300000*%
%ADD12R,1.700000X1.700000*%
%ADD13O,1.700000X1.700000*%
%ADD14C,1.600000*%
G04 APERTURE END LIST*
D10*
D11*
X163408571Y-102964143D02*
X163194285Y-103035571D01*
X162837142Y-103035571D01*
X162694285Y-102964143D01*
X162622856Y-102892714D01*
X162551428Y-102749857D01*
X162551428Y-102607000D01*
X162622856Y-102464143D01*
X162694285Y-102392714D01*
X162837142Y-102321286D01*
X163122856Y-102249857D01*
X163265714Y-102178429D01*
X163337142Y-102107000D01*
X163408571Y-101964143D01*
X163408571Y-101821286D01*
X163337142Y-101678429D01*
X163265714Y-101607000D01*
X163122856Y-101535571D01*
X162765714Y-101535571D01*
X162551428Y-101607000D01*
X161908571Y-103035571D02*
X161908571Y-102035571D01*
X161908571Y-101535571D02*
X161980000Y-101607000D01*
X161908571Y-101678429D01*
X161837143Y-101607000D01*
X161908571Y-101535571D01*
X161908571Y-101678429D01*
X161194285Y-102035571D02*
X161194285Y-103035571D01*
X161194285Y-102178429D02*
X161122857Y-102107000D01*
X160979999Y-102035571D01*
X160765714Y-102035571D01*
X160622857Y-102107000D01*
X160551428Y-102249857D01*
X160551428Y-103035571D01*
X159194285Y-102035571D02*
X159194285Y-103249857D01*
X159265714Y-103392714D01*
X159337142Y-103464143D01*
X159479999Y-103535571D01*
X159694285Y-103535571D01*
X159837142Y-103464143D01*
X159194285Y-102964143D02*
X159337142Y-103035571D01*
X159622856Y-103035571D01*
X159765714Y-102964143D01*
X159837142Y-102892714D01*
X159908571Y-102749857D01*
X159908571Y-102321286D01*
X159837142Y-102178429D01*
X159765714Y-102107000D01*
X159622856Y-102035571D01*
X159337142Y-102035571D01*
X159194285Y-102107000D01*
X158265713Y-103035571D02*
X158408571Y-102964143D01*
X158479999Y-102821286D01*
X158479999Y-101535571D01*
X157122857Y-102964143D02*
X157265714Y-103035571D01*
X157551428Y-103035571D01*
X157694285Y-102964143D01*
X157765714Y-102821286D01*
X157765714Y-102249857D01*
X157694285Y-102107000D01*
X157551428Y-102035571D01*
X157265714Y-102035571D01*
X157122857Y-102107000D01*
X157051428Y-102249857D01*
X157051428Y-102392714D01*
X157765714Y-102535571D01*
X154408571Y-102892714D02*
X154480000Y-102964143D01*
X154694286Y-103035571D01*
X154837143Y-103035571D01*
X155051428Y-102964143D01*
X155194286Y-102821286D01*
X155265714Y-102678429D01*
X155337143Y-102392714D01*
X155337143Y-102178429D01*
X155265714Y-101892714D01*
X155194286Y-101749857D01*
X155051428Y-101607000D01*
X154837143Y-101535571D01*
X154694286Y-101535571D01*
X154480000Y-101607000D01*
X154408571Y-101678429D01*
X153194286Y-102964143D02*
X153337143Y-103035571D01*
X153622857Y-103035571D01*
X153765714Y-102964143D01*
X153837143Y-102821286D01*
X153837143Y-102249857D01*
X153765714Y-102107000D01*
X153622857Y-102035571D01*
X153337143Y-102035571D01*
X153194286Y-102107000D01*
X153122857Y-102249857D01*
X153122857Y-102392714D01*
X153837143Y-102535571D01*
X152265714Y-103035571D02*
X152408572Y-102964143D01*
X152480000Y-102821286D01*
X152480000Y-101535571D01*
X151480000Y-103035571D02*
X151622858Y-102964143D01*
X151694286Y-102821286D01*
X151694286Y-101535571D01*
X167730000Y-105585571D02*
X168444286Y-105585571D01*
X168444286Y-104085571D01*
X167230000Y-105585571D02*
X167230000Y-104585571D01*
X167230000Y-104085571D02*
X167301429Y-104157000D01*
X167230000Y-104228429D01*
X167158572Y-104157000D01*
X167230000Y-104085571D01*
X167230000Y-104228429D01*
X166730000Y-104585571D02*
X166158571Y-104585571D01*
X166515714Y-104085571D02*
X166515714Y-105371286D01*
X166444286Y-105514143D01*
X166301428Y-105585571D01*
X166158571Y-105585571D01*
X165658571Y-105585571D02*
X165658571Y-104085571D01*
X165015714Y-105585571D02*
X165015714Y-104799857D01*
X165087143Y-104657000D01*
X165230000Y-104585571D01*
X165444285Y-104585571D01*
X165587143Y-104657000D01*
X165658571Y-104728429D01*
X164301428Y-105585571D02*
X164301428Y-104585571D01*
X164301428Y-104085571D02*
X164372857Y-104157000D01*
X164301428Y-104228429D01*
X164230000Y-104157000D01*
X164301428Y-104085571D01*
X164301428Y-104228429D01*
X162944285Y-104585571D02*
X162944285Y-105585571D01*
X163587142Y-104585571D02*
X163587142Y-105371286D01*
X163515714Y-105514143D01*
X163372856Y-105585571D01*
X163158571Y-105585571D01*
X163015714Y-105514143D01*
X162944285Y-105442714D01*
X162229999Y-105585571D02*
X162229999Y-104585571D01*
X162229999Y-104728429D02*
X162158571Y-104657000D01*
X162015713Y-104585571D01*
X161801428Y-104585571D01*
X161658571Y-104657000D01*
X161587142Y-104799857D01*
X161587142Y-105585571D01*
X161587142Y-104799857D02*
X161515713Y-104657000D01*
X161372856Y-104585571D01*
X161158571Y-104585571D01*
X161015713Y-104657000D01*
X160944285Y-104799857D01*
X160944285Y-105585571D01*
X159087142Y-105585571D02*
X159087142Y-104085571D01*
X158158570Y-105585571D02*
X158301428Y-105514143D01*
X158372856Y-105442714D01*
X158444285Y-105299857D01*
X158444285Y-104871286D01*
X158372856Y-104728429D01*
X158301428Y-104657000D01*
X158158570Y-104585571D01*
X157944285Y-104585571D01*
X157801428Y-104657000D01*
X157729999Y-104728429D01*
X157658570Y-104871286D01*
X157658570Y-105299857D01*
X157729999Y-105442714D01*
X157801428Y-105514143D01*
X157944285Y-105585571D01*
X158158570Y-105585571D01*
X157015713Y-104585571D02*
X157015713Y-105585571D01*
X157015713Y-104728429D02*
X156944285Y-104657000D01*
X156801427Y-104585571D01*
X156587142Y-104585571D01*
X156444285Y-104657000D01*
X156372856Y-104799857D01*
X156372856Y-105585571D01*
X153658570Y-105442714D02*
X153729999Y-105514143D01*
X153944285Y-105585571D01*
X154087142Y-105585571D01*
X154301427Y-105514143D01*
X154444285Y-105371286D01*
X154515713Y-105228429D01*
X154587142Y-104942714D01*
X154587142Y-104728429D01*
X154515713Y-104442714D01*
X154444285Y-104299857D01*
X154301427Y-104157000D01*
X154087142Y-104085571D01*
X153944285Y-104085571D01*
X153729999Y-104157000D01*
X153658570Y-104228429D01*
X153015713Y-105585571D02*
X153015713Y-104085571D01*
X152372856Y-105585571D02*
X152372856Y-104799857D01*
X152444285Y-104657000D01*
X152587142Y-104585571D01*
X152801427Y-104585571D01*
X152944285Y-104657000D01*
X153015713Y-104728429D01*
X151015713Y-105585571D02*
X151015713Y-104799857D01*
X151087142Y-104657000D01*
X151229999Y-104585571D01*
X151515713Y-104585571D01*
X151658570Y-104657000D01*
X151015713Y-105514143D02*
X151158570Y-105585571D01*
X151515713Y-105585571D01*
X151658570Y-105514143D01*
X151729999Y-105371286D01*
X151729999Y-105228429D01*
X151658570Y-105085571D01*
X151515713Y-105014143D01*
X151158570Y-105014143D01*
X151015713Y-104942714D01*
X150301427Y-105585571D02*
X150301427Y-104585571D01*
X150301427Y-104871286D02*
X150229999Y-104728429D01*
X150158570Y-104657000D01*
X150015713Y-104585571D01*
X149872856Y-104585571D01*
X148729999Y-104585571D02*
X148729999Y-105799857D01*
X148801428Y-105942714D01*
X148872856Y-106014143D01*
X149015713Y-106085571D01*
X149229999Y-106085571D01*
X149372856Y-106014143D01*
X148729999Y-105514143D02*
X148872856Y-105585571D01*
X149158570Y-105585571D01*
X149301428Y-105514143D01*
X149372856Y-105442714D01*
X149444285Y-105299857D01*
X149444285Y-104871286D01*
X149372856Y-104728429D01*
X149301428Y-104657000D01*
X149158570Y-104585571D01*
X148872856Y-104585571D01*
X148729999Y-104657000D01*
X147444285Y-105514143D02*
X147587142Y-105585571D01*
X147872856Y-105585571D01*
X148015713Y-105514143D01*
X148087142Y-105371286D01*
X148087142Y-104799857D01*
X148015713Y-104657000D01*
X147872856Y-104585571D01*
X147587142Y-104585571D01*
X147444285Y-104657000D01*
X147372856Y-104799857D01*
X147372856Y-104942714D01*
X148087142Y-105085571D01*
X146729999Y-105585571D02*
X146729999Y-104585571D01*
X146729999Y-104871286D02*
X146658571Y-104728429D01*
X146587142Y-104657000D01*
X146444285Y-104585571D01*
X146301428Y-104585571D01*
%LPC*%
D12*
X159750000Y-109000000D03*
D13*
X157210000Y-109000000D03*
D12*
X172325000Y-95125000D03*
D13*
X172325000Y-92585000D03*
D14*
X161525000Y-87925000D03*
X154925000Y-87925000D03*
M02*
