M48
;DRILL file {KiCad 4.0.6-e0-6349~53~ubuntu14.04.1} date Sat Mar 25 19:17:21 2017
;FORMAT={2:4/ absolute / inch / keep zeros}
FMAT,2
INCH,TZ
T1C0.013
T2C0.039
T3C0.047
%
G90
G05
M72
T1
X056500Y-034200
X056500Y-034500
X056500Y-034800
X056500Y-035100
X056500Y-035400
X056500Y-035700
X056500Y-036000
X056500Y-036300
X056500Y-036600
X056500Y-038500
X056500Y-038800
X056500Y-039100
X056500Y-039400
X056500Y-039700
X056500Y-040000
X056500Y-041000
X056500Y-041300
X056500Y-041600
X056700Y-037000
X056900Y-034200
X056900Y-034500
X056900Y-034800
X056900Y-035100
X056900Y-035100
X056900Y-035400
X056900Y-035700
X056900Y-036000
X056900Y-036300
X056900Y-036300
X056900Y-036600
X056900Y-038500
X056900Y-038500
X056900Y-038800
X056900Y-039100
X056900Y-039400
X056900Y-039700
X056900Y-040000
X056900Y-041000
X056900Y-041000
X056900Y-041300
X056900Y-041600
X057200Y-039300
X057200Y-039800
X057200Y-039800
X057600Y-039300
X057600Y-039800
X057700Y-034200
X057700Y-034500
X057700Y-034800
X057700Y-035100
X057700Y-035400
X057700Y-035700
X057700Y-036000
X057700Y-037100
X057700Y-038500
X058000Y-039300
X058000Y-039800
X058100Y-034200
X058100Y-034500
X058100Y-034800
X058100Y-035100
X058100Y-035400
X058100Y-035700
X058100Y-036000
X058100Y-037100
X058100Y-038500
X058400Y-039300
X058400Y-039800
X058500Y-034200
X058500Y-034500
X058500Y-034800
X058500Y-035100
X058500Y-035400
X058500Y-035700
X058500Y-036000
X058500Y-037100
X058500Y-038500
X058800Y-039300
X058800Y-039800
X058900Y-034200
X058900Y-034500
X058900Y-034800
X058900Y-035100
X058900Y-035400
X058900Y-035700
X058900Y-036000
X058900Y-037100
X058900Y-038500
X059000Y-037500
X059000Y-037800
X059000Y-038100
X059200Y-039300
X059200Y-039800
X059300Y-034200
X059300Y-034500
X059300Y-034800
X059300Y-035100
X059300Y-035400
X059300Y-035700
X059300Y-036000
X059300Y-037100
X059300Y-038500
X059400Y-037500
X059400Y-037800
X059400Y-038100
X059600Y-039300
X059600Y-039800
X059700Y-034200
X059700Y-034500
X059700Y-034800
X059700Y-035100
X059700Y-035400
X059700Y-035700
X059700Y-036000
X059700Y-038500
X060000Y-039300
X060000Y-039800
X060100Y-034200
X060100Y-034500
X060100Y-034800
X060100Y-035100
X060100Y-035400
X060100Y-035700
X060100Y-036000
X060400Y-039300
X060400Y-039800
X060800Y-039300
X060800Y-039800
X061000Y-038000
X061000Y-038600
X061200Y-039300
X061200Y-041600
X061200Y-042100
X062100Y-039000
X062100Y-039300
X062100Y-039600
X062100Y-039900
X062100Y-040200
X062100Y-040500
X062100Y-040800
X062100Y-041100
X062600Y-038000
X062600Y-038600
X062900Y-039400
X063000Y-036200
X063022Y-036654
X063300Y-039400
X063800Y-039300
X063800Y-039800
X063800Y-039800
X064100Y-038100
X064100Y-038400
X064100Y-038700
X064200Y-039300
X064200Y-039800
X064500Y-038100
X064500Y-038400
X064500Y-038700
X064600Y-034300
X064600Y-034600
X064600Y-034900
X064600Y-035200
X064600Y-035500
X064600Y-035900
X064600Y-036200
X064600Y-036500
X064600Y-039300
X064600Y-039800
X064900Y-038100
X064900Y-038400
X064900Y-038700
X065000Y-035900
X065000Y-036200
X065000Y-036500
X065000Y-039300
X065000Y-039800
X065300Y-038100
X065300Y-038400
X065300Y-038700
X065400Y-035900
X065400Y-036200
X065400Y-036500
X065400Y-039300
X065400Y-039800
X065800Y-035900
X065800Y-036200
X065800Y-036500
X065800Y-039300
X065800Y-039800
X066100Y-038100
X066100Y-038400
X066100Y-038700
X066100Y-039000
X066200Y-035900
X066200Y-036200
X066200Y-036500
X066200Y-039300
X066200Y-039800
X066500Y-038100
X066500Y-038400
X066500Y-038700
X066500Y-039000
X066585Y-040531
X066600Y-035900
X066600Y-036200
X066600Y-036500
X066600Y-039300
X066600Y-039800
X066900Y-038100
X066900Y-038400
X066900Y-038700
X066900Y-039000
X067000Y-035900
X067000Y-036200
X067000Y-036500
X067000Y-039300
X067000Y-039800
X067300Y-038400
X067300Y-038700
X067300Y-039000
X067400Y-039300
X067400Y-039800
X067700Y-038400
X067700Y-038700
X067700Y-039000
X067800Y-039300
X067800Y-039800
X068100Y-038400
X068100Y-038700
X068100Y-039000
X068200Y-039300
X068200Y-039800
T2
X061894Y-042913
X062894Y-042913
X067844Y-036451
X067844Y-037451
T3
X060994Y-034616
X063593Y-034616
T0
M30
